<svg xmlns="http://www.w3.org/2000/svg" xmlns:xlink="http://www.w3.org/1999/xlink" id="Layer_1" x="0px" y="0px" viewBox="0 0 350 100" style="enable-background:new 0 0 350 100;" xml:space="preserve"><style type="text/css">	.st0{fill:url(#SVGID_1_);}	.st1{fill-rule:evenodd;clip-rule:evenodd;fill:#172737;}	.st2{fill:#172737;}	.st3{fill:#002337;stroke:#102C40;stroke-width:0.5;stroke-miterlimit:10;}	.st4{fill:#002337;stroke:#102C40;stroke-width:0.25;stroke-miterlimit:10;}</style><g>	<linearGradient id="SVGID_1_" gradientUnits="userSpaceOnUse" x1="38.2453" y1="5.2628" x2="38.2453" y2="98.556">		<stop offset="1.123600e-02" style="stop-color:#4DADAC"></stop>		<stop offset="0.5" style="stop-color:#008EA6"></stop>		<stop offset="0.9944" style="stop-color:#00658F"></stop>	</linearGradient>	<polygon class="st0" points="38.2,6.6 0.4,28.5 0.4,72.2 11.3,65.9 11.3,34.8 11.3,34.8 38.3,50.4 47.4,45.1 20.4,29.5 38.2,19.2   65.2,34.8 65.2,65.9 38.2,81.5 21.3,71.7 10.3,78 38.2,94.1 76.1,72.2 76.1,28.5  "></polygon></g><path class="st1" d="M258.3,32.3c0,0.8-0.2,1.5-0.6,2.1c-0.4,0.7-0.9,1.2-1.6,1.6c-0.7,0.4-1.4,0.6-2.1,0.6c-0.6,0-1.1-0.1-1.7-0.3 c-0.5-0.2-1-0.5-1.4-0.9c-0.4-0.4-0.7-0.9-0.9-1.4c-0.2-0.5-0.3-1.1-0.3-1.7c0-0.8,0.2-1.5,0.6-2.1c0.4-0.7,0.9-1.2,1.6-1.6 c0.7-0.4,1.4-0.6,2.1-0.6c0.6,0,1.1,0.1,1.7,0.3c0.5,0.2,1,0.5,1.4,0.9c0.4,0.4,0.7,0.9,0.9,1.4C258.2,31.2,258.3,31.7,258.3,32.3 L258.3,32.3z M257.3,32.3c0-0.4-0.1-0.8-0.3-1.2c-0.2-0.4-0.4-0.7-0.7-1c-0.3-0.3-0.6-0.5-1-0.7c-0.4-0.2-0.8-0.3-1.2-0.3 c-0.6,0-1.1,0.1-1.6,0.4c-0.5,0.3-0.9,0.7-1.2,1.2c-0.3,0.5-0.4,1-0.4,1.6c0,0.6,0.1,1.1,0.4,1.6c0.3,0.5,0.7,0.9,1.2,1.2 c0.5,0.3,1,0.4,1.6,0.4c0.6,0,1.1-0.1,1.6-0.4c0.5-0.3,0.9-0.7,1.2-1.2C257.1,33.4,257.3,32.9,257.3,32.3L257.3,32.3z M254.8,32.6 c0.3-0.1,0.5-0.2,0.7-0.4c0.2-0.2,0.3-0.5,0.3-0.9c0-0.3-0.1-0.5-0.2-0.7c-0.1-0.2-0.3-0.4-0.6-0.5c-0.3-0.1-0.7-0.1-1-0.1h-1.8v4.5 h1v-1.8c0.3,0,0.5,0.1,0.7,0.3c0.4,0.3,0.7,1,0.9,1.5l0,0.1h1.2l-0.1-0.1C255.6,33.8,255.3,33,254.8,32.6L254.8,32.6z M253.2,31.8 h0.5c0.2,0,0.6,0,0.7,0c0.1,0,0.1-0.1,0.2-0.2c0.1-0.1,0.1-0.2,0.1-0.3c0-0.1,0-0.2-0.1-0.3c-0.1-0.1-0.2-0.1-0.3-0.1 c-0.1,0-0.1,0-0.2,0c-0.1,0-0.3,0-0.4,0h-0.6V31.8z"></path><g>	<path class="st2" d="M107.7,72.5h-6.3V28.2h24.1v6.3h-17.7v12.7h17.7l-1.5,6.3h-16.2V72.5z"></path>	<path class="st2" d="M153.7,40.9l-1.5,6.3h-9c-3.2,0-6.3,3.2-6.3,6.3v19h-6.3V40.9h6.3v5.8c0.3-3.2,3-5.8,6.3-5.8H153.7z"></path>	<path class="st2" d="M172.9,40.9c5.3,0,9.5,4.2,9.5,9.5v9.5h-19V63c0,1.8,1.4,3.2,3.2,3.2h14.6l-1.5,6.3h-13  c-5.3,0-9.5-4.2-9.5-9.5V50.4c0-5.3,4.2-9.5,9.5-9.5H172.9z M166.5,47.2c-1.8,0-3.2,1.4-3.2,3.2v3.2H176v-3.2  c0-1.8-1.4-3.2-3.2-3.2H166.5z"></path>	<path class="st2" d="M194.4,40.9v9.5c0,1.8,1.4,3.2,3.2,3.2h9.5V40.9h6.3V63c0,5.3-4.2,9.5-9.5,9.5h-14.6l1.5-6.3h13.1  c1.8,0,3.2-1.4,3.2-3.2v-3.2h-9.5c-5.3,0-9.5-4.2-9.5-9.5v-9.5H194.4z"></path>	<path class="st2" d="M220.1,47.2l1.5-6.3h12.7c5.3,0,9.5,4.2,9.5,9.5v22.2H228c-5.3,0-9.5-4.2-9.5-9.5s4.2-9.5,9.5-9.5h9.5v-3.2  c0-1.8-1.4-3.2-3.2-3.2H220.1z M237.4,66.2v-6.3H228c-1.8,0-3.2,1.4-3.2,3.2c0,1.8,1.4,3.2,3.2,3.2H237.4z"></path></g><rect x="263.8" y="36.6" class="st3" width="0.8" height="36.4"></rect><g>	<path class="st4" d="M286.8,45.5h-4.3v3.7h-0.9V41h0.9v3.7h4.3V41h0.9v8.3h-0.9V45.5z"></path>	<path class="st4" d="M289.4,45.2c0-2.7,0.7-4.3,3.3-4.3c2.6,0,3.4,1.5,3.4,4.3c0,2.9-0.7,4.2-3.4,4.2  C290.1,49.4,289.4,48,289.4,45.2z M295.1,45.2c0-2.2-0.4-3.5-2.4-3.5c-1.9,0-2.4,1.2-2.4,3.5c0,2.3,0.4,3.4,2.4,3.4  C294.7,48.6,295.1,47.5,295.1,45.2z"></path>	<path class="st4" d="M302.6,41.9c0,0-1.7-0.2-2.4-0.2c-1.2,0-1.8,0.4-1.8,1.4c0,1.1,0.6,1.3,2.1,1.6c1.7,0.4,2.4,0.8,2.4,2.2  c0,1.8-1,2.6-2.7,2.6c-1,0-2.7-0.3-2.7-0.3l0.1-0.8c0,0,1.7,0.2,2.5,0.2c1.2,0,1.8-0.5,1.8-1.7c0-0.9-0.5-1.2-1.9-1.5  c-1.8-0.4-2.6-0.8-2.6-2.4c0-1.6,1.1-2.2,2.7-2.2c1,0,2.6,0.2,2.6,0.2L302.6,41.9z"></path>	<path class="st4" d="M305.4,46.5v2.8h-0.9V41h3.1c1.8,0,2.7,0.9,2.7,2.7c0,1.8-0.9,2.8-2.7,2.8H305.4z M307.6,45.7  c1.2,0,1.8-0.7,1.8-2c0-1.3-0.5-1.9-1.8-1.9h-2.1v3.9H307.6z"></path>	<path class="st4" d="M311.7,41h0.9v8.3h-0.9V41z"></path>	<path class="st4" d="M313.9,41h6.1v0.8h-2.6v7.5h-0.9v-7.5h-2.6V41z"></path>	<path class="st4" d="M322.2,41h2.1l2.3,8.3h-0.9l-0.6-2.1h-3.6l-0.6,2.1h-0.9L322.2,41z M321.6,46.3h3.2l-1.3-4.5h-0.6L321.6,46.3z  "></path>	<path class="st4" d="M327.9,49.3V41h0.9v7.5h3.7v0.8H327.9z"></path>	<path class="st4" d="M333.8,41h0.9v8.3h-0.9V41z"></path>	<path class="st4" d="M335.9,41h6.1v0.8h-2.6v7.5h-0.9v-7.5h-2.6V41z"></path>	<path class="st4" d="M346,49.3H345v-3.5l-2.7-4.8h1.1l2.1,3.9l2.1-3.9h1.1l-2.7,4.8V49.3z"></path>	<path class="st4" d="M281.2,56.5c0-2.7,0.7-4.3,3.3-4.3c2.6,0,3.4,1.5,3.4,4.3c0,2.9-0.7,4.2-3.4,4.2  C281.9,60.7,281.2,59.3,281.2,56.5z M286.9,56.5c0-2.2-0.4-3.5-2.4-3.5c-1.9,0-2.4,1.2-2.4,3.5c0,2.3,0.4,3.4,2.4,3.4  C286.5,59.9,286.9,58.8,286.9,56.5z"></path>	<path class="st4" d="M290.5,57.8v2.8h-0.9v-8.3h3.1c1.8,0,2.7,0.9,2.7,2.7c0,1.8-0.9,2.8-2.7,2.8H290.5z M292.7,57  c1.2,0,1.8-0.7,1.8-2c0-1.3-0.5-1.9-1.8-1.9h-2.1V57H292.7z"></path>	<path class="st4" d="M296.8,52.3h5.2v0.8h-4.2V56h3.5v0.8h-3.5v3h4.2v0.8h-5.2V52.3z"></path>	<path class="st4" d="M304.6,57.4v3.2h-0.9v-8.3h3.1c1.8,0,2.7,0.8,2.7,2.5c0,1.2-0.5,2.1-1.6,2.4l1.6,3.4h-1l-1.5-3.2H304.6z   M306.7,53.1h-2.2v3.5h2.2c1.3,0,1.7-0.7,1.7-1.8C308.5,53.7,307.9,53.1,306.7,53.1z"></path>	<path class="st4" d="M312.6,52.3h2.1l2.3,8.3h-0.9l-0.6-2.1h-3.6l-0.6,2.1h-0.9L312.6,52.3z M312.1,57.6h3.2l-1.3-4.5h-0.6  L312.1,57.6z"></path>	<path class="st4" d="M316.9,52.3h6.1v0.8h-2.6v7.5h-0.9v-7.5h-2.6V52.3z"></path>	<path class="st4" d="M324.2,52.3h0.9v8.3h-0.9V52.3z"></path>	<path class="st4" d="M327.2,52.3h1.8l3.2,7.5h0.3v-7.5h0.9v8.3h-1.7l-3.3-7.5h-0.2v7.5h-0.9V52.3z"></path>	<path class="st4" d="M338.9,56.4h2.3v4.1c-0.3,0-1.8,0.3-2.8,0.3c-2.6,0-3.3-1.6-3.3-4.2c0-2.8,0.7-4.3,3.3-4.3  c1.3,0,2.8,0.3,2.8,0.3l0,0.8c0,0-1.5-0.3-2.6-0.3c-2,0-2.4,1.1-2.4,3.5c0,2.3,0.4,3.4,2.4,3.4c0.6,0,1.4-0.1,1.8-0.2v-2.6h-1.4  V56.4z"></path>	<path class="st4" d="M286.3,64.5c0,0-1.7-0.2-2.4-0.2c-1.2,0-1.8,0.4-1.8,1.4c0,1.1,0.6,1.3,2.1,1.6c1.7,0.4,2.4,0.8,2.4,2.2  c0,1.8-1,2.6-2.7,2.6c-1,0-2.7-0.3-2.7-0.3l0.1-0.8c0,0,1.7,0.2,2.5,0.2c1.2,0,1.8-0.5,1.8-1.7c0-0.9-0.5-1.2-1.9-1.5  c-1.8-0.4-2.6-0.8-2.6-2.4c0-1.6,1.1-2.2,2.7-2.2c1,0,2.6,0.2,2.6,0.2L286.3,64.5z"></path>	<path class="st4" d="M290.7,71.9h-0.9v-3.5l-2.7-4.8h1.1l2.1,3.9l2.1-3.9h1.1l-2.7,4.8V71.9z"></path>	<path class="st4" d="M299.1,64.5c0,0-1.7-0.2-2.4-0.2c-1.2,0-1.8,0.4-1.8,1.4c0,1.1,0.6,1.3,2.1,1.6c1.7,0.4,2.4,0.8,2.4,2.2  c0,1.8-1,2.6-2.7,2.6c-1,0-2.7-0.3-2.7-0.3L294,71c0,0,1.7,0.2,2.5,0.2c1.2,0,1.8-0.5,1.8-1.7c0-0.9-0.5-1.2-1.9-1.5  c-1.8-0.4-2.6-0.8-2.6-2.4c0-1.6,1.1-2.2,2.7-2.2c1,0,2.6,0.2,2.6,0.2L299.1,64.5z"></path>	<path class="st4" d="M300.1,63.6h6.1v0.8h-2.6v7.5h-0.9v-7.5h-2.6V63.6z"></path>	<path class="st4" d="M307.4,63.6h5.2v0.8h-4.2v2.9h3.5v0.8h-3.5v3h4.2v0.8h-5.2V63.6z"></path>	<path class="st4" d="M314.2,63.6h1.7l2.4,7l2.4-7h1.7v8.3h-0.9v-7.3h-0.2l-2.5,7h-1.1l-2.5-7h-0.2v7.3h-0.9V63.6z"></path></g></svg>