<?xml version="1.0" encoding="utf-8"?>
<!-- Generator: Adobe Illustrator 20.1.0, SVG Export Plug-In . SVG Version: 6.00 Build 0)  -->
<svg version="1.1" id="Layer_1" xmlns="http://www.w3.org/2000/svg" xmlns:xlink="http://www.w3.org/1999/xlink" x="0px" y="0px"
	 viewBox="0 0 300 55.5" style="enable-background:new 0 0 300 55.5;" xml:space="preserve">
<style type="text/css">
	.st0{fill:#FFF0BE;}
	.st1{fill:#EC2127;}
	.st2{fill:#0A72BA;}
	.st3{fill:#FEC214;}
</style>
<title>Banca Transilvania 2016</title>
<g id="BT_Logo_Aliniat_Central_Color">
	<g id="Simbol">
		<path class="st0" d="M104.4,55c-2.6-1.1-5.1-2.5-7.4-4.1c-2.4-1.8-4.7-3.8-6.7-6c-4.2-4.5-7.5-9.8-9.7-15.6
			c2.6-9.1,2.7-16.4,0.3-24.4c3.6-1.4,7.2-2.6,11-3.3c8.2-1.6,16.7-1.6,24.9,0c3.8,0.7,7.4,1.9,11,3.3c-2.4,8-2.3,15.3,0.3,24.4
			c-2.2,5.8-5.5,11.1-9.7,15.6c-2,2.2-4.3,4.2-6.7,6C109.4,52.5,107,53.9,104.4,55z"/>
		<path class="st1" d="M111.8,51.4c7.7-5.5,13.5-13.2,16.8-22c-2.2-7.5-2.7-13.8-1.3-20.3L127,8.3l-5.1-1.7L121.4,7
			c-1.2,6.7-0.8,13.7,1.1,20.3c-4.8,11.2-13.2,17.9-19.1,20.5v0.9l7,3.1L111.8,51.4z"/>
		<path class="st2" d="M104.4,0c-7.5,0-14.9,1.3-21.9,3.8l-0.2,0.4c1.3,3.5,2.1,7.2,2.3,11c0.2,4.3-0.2,8.6-1.4,12.8v0.1l0.1,0.1
			c0.6,1.3,1.3,2.6,2.1,3.9c0.8,1.3,1.6,2.5,2.6,3.6c0.9,1.2,1.9,2.3,3,3.3c1.1,1.1,2.2,2.1,3.4,3c1.2,1,2.5,1.9,3.8,2.8
			s2.7,1.7,4.2,2.5l0.8,0.4h0.4v-0.2l0.9-0.4c-5.8-2.9-13.6-9.5-18.1-20.1c1.9-6.6,2.2-13.5,1.1-20.3c5.5-1.6,11.2-2.5,17-2.5
			c7.9,0,15.7,1.5,22.9,4.6c0.3-1.5,0.7-2.9,1.1-4.4C120.8,1.6,112.6,0,104.4,0z"/>
		<path class="st3" d="M111.8,51.4c-13.4-4.9-23.2-12.6-28.2-23.2c2.5-10.1,1.5-16.4-1.1-24.3l0,0c-0.7,0.3-1.5,0.6-2.2,0.9
			c2.6,8.1,2.5,15.5-0.2,24.7c4.4,11.8,13.7,21.9,24.3,26.1C107,54.4,109.5,53.1,111.8,51.4z"/>
		<path d="M100.2,21.6L100.2,21.6c2-0.4,3.5-1.2,3.5-3.5c0-2.9-2.3-4.2-5.1-4.2h-7.8v1.6c1,0,1.4,0.3,1.4,1.6v11.4
			c0,0.5,0.4,0.9,0.9,0.9h6c3.8,0,5.2-1.5,5.2-3.9C104.2,23.1,102.9,21.8,100.2,21.6z M96.2,15.6h0.9c1.6,0,2.2,0.6,2.2,2.5
			c0,2.1-0.6,2.5-2.1,2.5h-1L96.2,15.6z M97.5,27.6h-1.3v-5.2h1.5c1.5,0,2.2,0.8,2.2,2.6C99.9,27.1,99.1,27.6,97.5,27.6L97.5,27.6z
			 M118,14.6l0.2,3.5h-1.9c-0.5-1.9-0.6-2.6-2.1-2.6h-0.6v13.8h-4.1V15.6h-0.6c-1.5,0-1.6,0.7-2.1,2.6h-1.9l0.2-3.5
			c0-0.5,0.4-0.8,0.9-0.8h11.2c0.5,0,0.8,0.4,0.9,0.8L118,14.6z"/>
	</g>
	<path d="M149,13.9l0.2,4.1h-1.7c-0.4-1.9-0.6-2.6-2-2.6h-1v11.3c0,1.3,0.4,1.6,1.8,1.6v1h-7v-1c1.3,0,1.8-0.3,1.8-1.6V15.4h-1
		c-1.4,0-1.6,0.6-2,2.6h-1.7l0.2-4.1H149z M158.4,22.4c1,0.2,1.8,0.8,2.4,1.6c0.6,1,1.2,2,1.7,3c0.4,0.9,0.6,1.3,1.7,1.3v1h-4.5
		c-0.6-1.6-1.4-3.1-2.2-4.6c-0.8-1.4-1.3-1.8-2.4-1.9v3.9c0,1.3,0.4,1.6,1.5,1.6v1h-6.5v-1c1.2,0,1.5-0.3,1.5-1.6V16.5
		c0-1.3-0.4-1.6-1.5-1.6v-1.1h7.1c3.2,0,5.5,1.2,5.5,4.4c0,2.7-1.9,3.9-4.3,4L158.4,22.4z M156.6,15.4h-1.4v5.8h1.3
		c1.7,0,2.5-0.6,2.5-2.9C159,16.2,158.3,15.4,156.6,15.4L156.6,15.4z M173.1,25.2h-4.8l-0.6,1.9c-0.1,0.2-0.1,0.4-0.1,0.6
		c0,0.6,0.4,0.6,1.4,0.7v1h-4.9v-1c1-0.1,1.3-0.3,1.6-1.5l4.2-13h2.8l4.4,12.9c0.4,1,0.6,1.4,1.5,1.5v1h-6.3v-1c1,0,1.4-0.2,1.4-0.7
		c0-0.2,0-0.4-0.1-0.6L173.1,25.2z M168.8,23.5h3.8l-1.2-3.8c-0.3-0.8-0.5-1.7-0.7-2.5h-0.1c-0.1,0.4-0.3,1.2-0.7,2.6L168.8,23.5z
		 M190.6,16.5c0-1.3-0.4-1.6-1.5-1.6v-1.1h4.9v1.1c-1.2,0-1.5,0.3-1.5,1.6v12.8H190l-5.4-8.4c-0.7-1.1-1.3-2.2-1.9-3.3h-0.1
		c0.1,1.1,0.2,2.3,0.2,3.4v5.8c0,1.3,0.4,1.6,1.5,1.6v1h-5v-1c1.2,0,1.5-0.3,1.5-1.6V16.5c0-1.3-0.4-1.6-1.5-1.6v-1.1h5.1l4.7,7.4
		c0.6,0.9,1.1,1.9,1.5,2.9h0.1c-0.1-1.1-0.2-2.2-0.2-3.3L190.6,16.5z M195.8,28.3v-3h2.3c0.2,2,1.1,2.9,2.8,2.9s2.6-0.8,2.6-2.5
		c0-1.4-0.6-2.1-2.4-2.6l-1.6-0.4c-2.3-0.6-3.7-1.8-3.7-4.4c0-3.2,2.1-4.8,5.4-4.8c1.6-0.1,3.2,0.3,4.6,1.1v3.1h-2.3
		c-0.2-1.7-0.8-2.7-2.6-2.7c-1.1-0.1-2.1,0.7-2.2,1.8c0,0.1,0,0.2,0,0.3c0,1.2,0.5,1.9,2.1,2.3l1.5,0.4c2.5,0.6,4.2,2,4.2,4.8
		c0,3.2-2.1,5-5.9,5C199,29.6,197.3,29.2,195.8,28.3L195.8,28.3z M210,16.5c0-1.3-0.4-1.6-1.5-1.6v-1.1h6.5v1.1
		c-1.2,0-1.5,0.3-1.5,1.6v10.2c0,1.3,0.4,1.6,1.5,1.6v1h-6.5v-1c1.2,0,1.5-0.3,1.5-1.6L210,16.5z M221.8,27.8h2.1
		c1.4,0,2.2-0.6,2.6-2.8h1.7l-0.3,4.3h-11.1v-1c1.2,0,1.5-0.3,1.5-1.6V16.5c0-1.3-0.4-1.6-1.5-1.6v-1.1h6.6v1.1
		c-1.2,0-1.6,0.3-1.6,1.6L221.8,27.8z M232.5,29.3l-4.4-13c-0.4-1.1-0.6-1.3-1.5-1.4v-1h6.4v1c-0.9,0-1.3,0.3-1.3,0.8
		c0,0.2,0,0.3,0.1,0.5l2.2,7.2c0.3,0.9,0.5,1.9,0.6,2.9h0.1c0.2-1,0.4-2,0.7-2.9l2.2-7.1c0.1-0.2,0.1-0.3,0.1-0.5
		c0-0.5-0.4-0.8-1.4-0.8v-1h4.9v1c-0.9,0.1-1.3,0.3-1.6,1.5l-4.3,13L232.5,29.3z M248.3,25.1h-4.8l-0.6,1.9
		c-0.1,0.2-0.1,0.4-0.1,0.6c0,0.6,0.4,0.6,1.4,0.7v1h-4.9v-1c1-0.1,1.3-0.3,1.6-1.5l4.2-12.9h2.8l4.4,12.9c0.4,1,0.6,1.4,1.5,1.5v1
		h-6.3v-1c1,0,1.4-0.2,1.4-0.7c0-0.2,0-0.4-0.1-0.6L248.3,25.1z M244,23.5h3.8l-1.2-3.8c-0.3-0.8-0.5-1.7-0.7-2.5h-0.1
		c-0.1,0.4-0.3,1.2-0.7,2.6L244,23.5z M265.8,16.5c0-1.3-0.4-1.6-1.5-1.6v-1h4.9v1.1c-1.2,0-1.5,0.3-1.5,1.6v12.8h-2.5l-5.5-8.4
		c-0.7-1.1-1.3-2.2-1.9-3.3h-0.1c0.1,1.1,0.2,2.3,0.2,3.4v5.8c0,1.3,0.4,1.6,1.5,1.6v1h-5v-1c1.2,0,1.5-0.3,1.5-1.6V16.5
		c0-1.3-0.4-1.6-1.5-1.6v-1.1h5.1l4.7,7.4c0.6,0.9,1.1,1.9,1.5,2.9h0.1c-0.1-1.1-0.2-2.2-0.2-3.3L265.8,16.5z M272.3,16.5
		c0-1.3-0.4-1.6-1.5-1.6v-1h6.5v1.1c-1.2,0-1.5,0.3-1.5,1.6v10.2c0,1.3,0.4,1.6,1.5,1.6v1h-6.5v-1c1.2,0,1.5-0.3,1.5-1.6V16.5z
		 M286.9,25.1h-4.8l-0.6,1.9c-0.1,0.2-0.1,0.4-0.1,0.6c0,0.6,0.4,0.6,1.4,0.7v1H278v-1c1-0.1,1.3-0.3,1.6-1.5l4.2-12.9h2.8l4.4,13
		c0.4,1,0.6,1.4,1.5,1.5v1h-6.3v-1c1,0,1.4-0.2,1.4-0.7c0-0.2,0-0.4-0.1-0.6L286.9,25.1z M282.6,23.5h3.8l-1.2-3.8
		c-0.3-0.8-0.5-1.7-0.7-2.5h-0.1c-0.1,0.4-0.3,1.2-0.7,2.6L282.6,23.5z M293.1,15.9c0-1.9,1.5-3.5,3.5-3.5c1.9,0,3.5,1.5,3.5,3.5
		s-1.5,3.5-3.5,3.5C294.7,19.4,293.1,17.8,293.1,15.9L293.1,15.9z M299.6,15.9c0-1.7-1.4-3-3-3s-3,1.4-3,3l0,0c0,1.7,1.4,3,3,3
		S299.6,17.6,299.6,15.9z M296.5,17.9h-1.8v-0.2c0.5,0,0.5-0.2,0.5-0.6v-2.3c0-0.4,0-0.6-0.5-0.6v-0.3h1.6c0.9,0,1.5,0.2,1.5,1.1
		s-0.5,1-1.2,1.1l0,0c0.3,0.1,0.6,0.4,0.8,0.6c0.1,0.1,0.2,0.3,0.3,0.6s0.2,0.4,0.6,0.4v0.2h-1c-0.2-0.4-0.4-0.8-0.5-1
		c-0.4-0.6-0.4-0.8-1-0.9v1c0,0.5,0.1,0.6,0.6,0.6L296.5,17.9z M296.3,14.1h-0.3v1.6h0.4c0.7,0,0.9-0.2,0.9-0.8S297,14.2,296.3,14.1
		L296.3,14.1z M0,28.3c1.2,0,1.5-0.3,1.5-1.6V16.5c0-1.3-0.4-1.6-1.5-1.6v-1.1h7.1c3.2,0,5.3,1.3,5.3,4.1c0,2.1-1.3,3.1-3.3,3.4v0.1
		c2.7,0.3,3.9,1.7,3.9,3.8c0,2.6-1.7,4-5.3,4H0V28.3z M6.4,20.7c1.7,0,2.3-0.6,2.3-2.6S8,15.4,6.3,15.4H5v5.3H6.4z M6.8,27.8
		c1.9,0,2.6-0.6,2.6-2.8c0-2-0.7-2.8-2.6-2.8H5v5.6H6.8z M22.8,25.1h-4.8l-0.6,1.9c-0.1,0.2-0.1,0.4-0.1,0.6c0,0.6,0.4,0.6,1.4,0.7
		v1h-4.9v-1c1-0.1,1.3-0.3,1.6-1.5l4.2-12.9h2.8L27,26.8c0.4,1,0.6,1.4,1.5,1.5v1h-6.3v-1c1,0,1.4-0.2,1.4-0.7c0-0.2,0-0.4-0.1-0.6
		L22.8,25.1z M18.5,23.5h3.8l-1.2-3.8c-0.3-0.8-0.5-1.7-0.7-2.5h-0.1c-0.1,0.4-0.3,1.2-0.7,2.6L18.5,23.5z M40.4,16.5
		c0-1.3-0.4-1.6-1.5-1.6v-1h4.9v1.1c-1.2,0-1.5,0.3-1.5,1.6v12.8h-2.5l-5.5-8.4c-0.7-1.1-1.3-2.2-1.8-3.3h-0.1
		c0.1,1.1,0.2,2.3,0.2,3.4v5.8c0,1.3,0.4,1.6,1.5,1.6v1h-5v-1c1.2,0,1.5-0.3,1.5-1.6V16.5c0-1.3-0.4-1.6-1.5-1.6v-1.1h5.2l4.7,7.4
		c0.6,0.9,1.1,1.9,1.5,2.9h0.1c-0.1-1.1-0.2-2.2-0.2-3.3L40.4,16.5z M45.4,21.8c0-5.6,2.9-8.2,7.2-8.2c1.7-0.1,3.3,0.3,4.8,1.1v3H55
		c-0.4-1.7-0.9-2.6-2.4-2.6c-2.1,0-3.3,1.4-3.3,6.5c0,5.4,1.3,6.4,3.3,6.4c1.8,0,2.3-0.8,2.6-2.6h2.3v2.9c-1.5,0.9-3.3,1.3-5,1.2
		C47.9,29.6,45.4,26.8,45.4,21.8L45.4,21.8z M67.1,25.1h-4.7L61.8,27c-0.1,0.2-0.1,0.4-0.1,0.6c0,0.6,0.4,0.6,1.4,0.7v1h-4.9v-1
		c1-0.1,1.3-0.3,1.7-1.5l4.2-12.9h2.8l4.4,12.9c0.4,1,0.6,1.4,1.5,1.5v1h-6.3v-1c1,0,1.4-0.2,1.4-0.7c0-0.2,0-0.4-0.1-0.6L67.1,25.1
		z M62.8,23.5h3.8l-1.2-3.8c-0.3-0.8-0.5-1.7-0.7-2.5h-0.1c-0.1,0.4-0.3,1.2-0.7,2.6L62.8,23.5z"/>
</g>
</svg>
