<?xml version="1.0" encoding="UTF-8" standalone="no"?>
<svg
   id="Layer_1"
   viewBox="0 0 147.08 20.120001"
   width="147.08"
   height="20.120001"
   version="1.1"
   sodipodi:docname="First Bank.svg"
   inkscape:version="1.4 (86a8ad7, 2024-10-11)"
   xmlns:inkscape="http://www.inkscape.org/namespaces/inkscape"
   xmlns:sodipodi="http://sodipodi.sourceforge.net/DTD/sodipodi-0.dtd"
   xmlns="http://www.w3.org/2000/svg"
   xmlns:svg="http://www.w3.org/2000/svg">
  <sodipodi:namedview
     id="namedview6"
     pagecolor="#ffffff"
     bordercolor="#000000"
     borderopacity="0.25"
     inkscape:showpageshadow="2"
     inkscape:pageopacity="0.0"
     inkscape:pagecheckerboard="0"
     inkscape:deskcolor="#d1d1d1"
     inkscape:zoom="2.2730769"
     inkscape:cx="80.067682"
     inkscape:cy="5.9390863"
     inkscape:window-width="1920"
     inkscape:window-height="1001"
     inkscape:window-x="-9"
     inkscape:window-y="-9"
     inkscape:window-maximized="1"
     inkscape:current-layer="Layer_1" />
  <defs
     id="defs1">
    <style
       id="style1">.cls-1{fill:#fff;}</style>
  </defs>
  <polygon
     class="cls-1"
     points="159.61,20.01 159.61,27.7 154.66,27.7 154.66,8.18 159.61,8.18 159.61,15.44 162.35,15.44 166.86,8.21 172.08,8.18 166.22,17.61 172.63,27.7 167.26,27.7 162.35,20.01 "
     id="polygon1"
     style="fill:#0047ba;fill-opacity:1"
     transform="translate(-25.55,-7.93)" />
  <path
     class="cls-1"
     d="M 50.46,8.09 48.87,7.71 C 48.33,7.58 47.92,7.44 47.63,7.29 47.34,7.14 47.13,6.97 47.02,6.77 46.9,6.58 46.85,6.33 46.85,6.03 c 0,-0.56 0.28,-1 0.85,-1.31 0.57,-0.31 1.53,-0.47 2.89,-0.47 0.81,0 1.62,0.06 2.43,0.17 0.17,0.02 0.34,0.05 0.5,0.08 L 54.26,0.48 C 53.08,0.22 51.78,0.09 50.37,0.09 c -2.78,0 -4.88,0.53 -6.29,1.6 -1.41,1.07 -2.12,2.59 -2.12,4.57 0,1.54 0.43,2.78 1.3,3.71 0.86,0.94 2.21,1.62 4.04,2.05 l 1.59,0.38 c 0.63,0.15 1.12,0.3 1.47,0.46 0.35,0.16 0.59,0.34 0.72,0.55 0.14,0.21 0.2,0.48 0.2,0.79 0,0.58 -0.24,1.02 -0.71,1.32 -0.47,0.3 -1.28,0.45 -2.42,0.45 -0.89,0 -1.86,-0.08 -2.92,-0.25 l -0.21,-0.04 -2.27,3.65 c 1.69,0.52 3.49,0.79 5.4,0.79 1.66,0 3.08,-0.25 4.29,-0.75 1.2,-0.5 2.12,-1.22 2.76,-2.16 0.64,-0.94 0.96,-2.05 0.96,-3.33 0,-1.54 -0.45,-2.78 -1.35,-3.71 -0.9,-0.94 -2.35,-1.64 -4.34,-2.1"
     id="path1"
     style="fill:#d02c2f;fill-opacity:1" />
  <polygon
     class="cls-1"
     points="30.5,16.24 37.25,16.24 37.25,20.39 30.5,20.39 30.5,27.73 25.55,27.73 25.55,8.21 39.09,8.21 39.09,12.37 30.5,12.37 "
     id="polygon2"
     style="fill:#d02c2f;fill-opacity:1"
     transform="translate(-25.55,-7.93)" />
  <polygon
     class="cls-1"
     points="43.8,12.46 46.46,12.46 46.46,27.73 41.51,27.73 41.51,16.11 "
     id="polygon3"
     style="fill:#d02c2f;fill-opacity:1"
     transform="translate(-25.55,-7.93)" />
  <path
     class="cls-1"
     d="M 30.4,9.27 32.43,9.21 C 33.59,9.21 34.45,9 35.01,8.57 35.57,8.14 35.84,7.46 35.84,6.51 35.84,5.56 35.56,4.87 35,4.43 34.44,4 33.58,3.97 32.43,3.97 c -0.68,0 -1.31,0 -2.03,0 V 19.8 H 25.55 V 0.28 h 6.37 c 2.84,0 4.97,0.27 6.39,1.33 1.42,1.05 2.13,2.68 2.13,4.89 0,1.35 -0.3,2.51 -0.91,3.46 -0.6,0.95 -1.48,1.68 -2.61,2.2 l 5.15,7.65 h -5.4 L 30.39,10.3 V 9.29 Z"
     id="path3"
     style="fill:#d02c2f;fill-opacity:1" />
  <polygon
     class="cls-1"
     points="81.24,12.45 81.24,8.21 95.58,8.21 95.58,12.45 91.18,12.45 91.18,19.43 86.23,27.49 86.23,12.45 "
     id="polygon4"
     style="fill:#d02c2f;fill-opacity:1"
     transform="translate(-25.55,-7.93)" />
  <polygon
     class="cls-1"
     points="41.51,8.21 41.51,16.11 46.46,8.21 "
     id="polygon5"
     style="fill:#0047ba;fill-opacity:1"
     transform="translate(-25.55,-7.93)" />
  <path
     class="cls-1"
     d="m 86.8,11.19 c 0.6,0.75 0.9,1.75 0.9,3 0,1.25 -0.31,2.33 -0.94,3.19 -0.63,0.86 -1.65,1.51 -3.09,1.97 -1.43,0.45 -3.33,0.68 -5.69,0.68 -0.81,0 -1.75,-0.04 -2.82,-0.12 -1.06,-0.08 -2.01,-0.18 -2.84,-0.3 V 0.79 C 73.27,0.55 74.33,0.36 75.51,0.22 76.69,0.07 77.8,0 78.84,0 c 2.9,0 5.02,0.46 6.35,1.38 1.33,0.92 2.01,2.31 2.01,4.17 0,1.01 -0.26,1.89 -0.77,2.63 -0.51,0.74 -1.21,1.25 -2.08,1.52 1.03,0.24 1.84,0.73 2.44,1.49 M 77.15,3.94 V 7.9 h 2.51 c 1.04,0 1.79,-0.17 2.25,-0.51 0.45,-0.34 0.68,-0.86 0.68,-1.58 0,-0.49 -0.1,-0.89 -0.3,-1.2 C 82.09,4.3 81.76,4.07 81.31,3.92 80.86,3.77 80.24,3.7 79.47,3.7 78.7,3.7 77.92,3.78 77.16,3.94 m 4.5,12.11 c 0.56,-0.17 0.96,-0.42 1.19,-0.75 0.23,-0.33 0.35,-0.77 0.35,-1.31 0,-0.54 -0.1,-0.98 -0.31,-1.32 -0.21,-0.33 -0.54,-0.58 -0.99,-0.74 -0.46,-0.16 -1.06,-0.24 -1.82,-0.24 h -2.91 v 4.5 c 0.62,0.07 1.35,0.11 2.19,0.11 0.98,0 1.75,-0.08 2.32,-0.25"
     id="path5"
     style="fill:#0047ba;fill-opacity:1" />
  <path
     class="cls-1"
     d="m 102.37,19.77 -1.42,-4.78 h -6.97 l -1.41,4.78 h -4.8 L 93.9,0.25 h 7.2 l 6.13,19.52 h -4.85 z M 95.2,10.93 h 4.56 L 97.47,3.24 Z"
     id="path6"
     style="fill:#0047ba;fill-opacity:1" />
  <polygon
     class="cls-1"
     points="151.47,27.7 146.52,27.7 138.71,15.76 138.71,27.7 134.06,27.7 134.06,8.18 139.01,8.18 146.82,20.11 146.82,8.18 151.47,8.18 "
     id="polygon6"
     style="fill:#0047ba;fill-opacity:1"
     transform="translate(-25.55,-7.93)" />
</svg>
