<svg xmlns="http://www.w3.org/2000/svg" width="425" height="184" viewBox="0 0 425 184">
  <g transform="matrix(1.051861,0,0,1.051861,1.730982,-61.220857)">
    <path d="M 141.5,60.71875 A 30.003,30.003 0 0 0 121.375,69.1875 L 7.15625,180.21875 A 30.010781,30.010781 0 1 0 49,223.25 l 93.25,-90.625 93.28125,91.1875 a 30.003,30.003 0 1 0 41.9375,-42.90625 L 163.25,69.25 A 30.003,30.003 0 0 0 141.5,60.71875 z" style="fill:#0047ab;fill-opacity:1;stroke:none"/>
    <path d="m 170.33898,171.61017 c 0,16.84936 -11.38259,30.50847 -25.42373,30.50847 -14.04114,0 -25.42373,-13.65911 -25.42373,-30.50847 0,-16.84937 11.38259,-30.50848 25.42373,-30.50848 14.04114,0 25.42373,13.65911 25.42373,30.50848 z" style="fill:#fcd116;fill-opacity:1;stroke:#ffffff;stroke-width:6.23954248;stroke-miterlimit:4;stroke-opacity:1" transform="matrix(1.9080309,0,0,1.4668373,-132.47184,-80.998341)"/>
    <path d="m 257.5,58.96875 c -7.90573,-0.07332 -15.79191,3.131415 -21.40547,8.698629 C 230.48097,73.234593 227.21097,81.093935 227.21875,89 l 0.125,113.71875 -0.0784,13.04999 c -0.002,0.30136 4.51118,4.29365 8.6792,8.4007 5.64544,5.5623 13.50565,8.95241 21.43093,8.94415 7.92529,-0.008 15.79659,-3.31085 21.35508,-8.96004 5.55849,-5.64919 8.73325,-13.57292 8.61323,-21.4973 l -0.0312,-17 50.8125,0 c 6.94111,0.0701 13.86744,-2.73763 18.80051,-7.62114 4.93308,-4.88352 7.81058,-11.78115 7.81058,-18.72261 0,-6.94146 -2.8775,-13.83909 -7.81058,-18.72261 -4.93307,-4.88351 -11.8594,-7.69123 -18.80051,-7.62114 l -50.875,0 0,-13.71875 83.65625,0.71875 c 7.90834,0.15725 15.83186,-2.96692 21.50478,-8.47914 5.67293,-5.51221 9.02344,-13.342693 9.09348,-21.25229 0.07,-7.909597 -3.14131,-15.798177 -8.71574,-21.409979 -5.57443,-5.611801 -13.44138,-8.87578 -21.35127,-8.858591 l -113.9375,-1 z" style="fill:#ce1126;fill-opacity:1;stroke:none"/>
  </g>
</svg>
