<?xml version="1.0" encoding="utf-8"?>
<svg version="1.0" xmlns="http://www.w3.org/2000/svg" viewBox="0 0 64 64" xml:space="preserve">
<style type="text/css">
  .st0{fill:#0073A1;}
  .st1{fill:#FFFFFF;}
</style>
<g>
  <path class="st0" d="M12.9,0h38.2C58.2,0,64,5.8,64,12.9v38.2C64,58.2,58.2,64,51.1,64H12.9C5.8,64,0,58.2,0,51.1V12.9
    C0,5.8,5.8,0,12.9,0z"/>
  <path class="st1" d="M37.1,23.1l-9.8,12.4c-0.7,0.9-1.9,1-2.8,0.3l-1.8-1.4c-0.9-0.7-1-1.9-0.3-2.8l9.8-12.4c0.7-0.9,1.9-1,2.8-0.3
    l1.8,1.4C37.6,20.9,37.8,22.2,37.1,23.1z"/>
  <path class="st1" d="M41.7,32.4l-9.8,12.4c-0.7,0.9-2,1-2.8,0.3l-1.8-1.4c-0.9-0.7-1-2-0.3-2.8l9.8-12.4c0.7-0.9,2-1,2.8-0.3
    l1.8,1.4C42.2,30.3,42.4,31.6,41.7,32.4z"/>
</g>
</svg>
